<svg width="51" height="12" viewBox="0 0 51 12" fill="none" xmlns="http://www.w3.org/2000/svg">
<path d="M0.708984 1.04688H2.24023L5.11816 8.72363L7.98926 1.04688H9.52051L5.71973 11H4.50293L0.708984 1.04688ZM0.0117188 1.04688H1.46777L1.7207 7.69141V11H0.0117188V1.04688ZM8.76172 1.04688H10.2246V11H8.50879V7.69141L8.76172 1.04688Z" fill="white"/>
<path d="M20.0264 9.63965V11H14.7422V9.63965H20.0264ZM15.2275 1.04688V11H13.5117V1.04688H15.2275ZM19.3359 5.20312V6.54297H14.7422V5.20312H19.3359ZM19.9922 1.04688V2.41406H14.7422V1.04688H19.9922Z" fill="white"/>
<path d="M28.5566 7.75977H30.2656C30.2109 8.41146 30.0286 8.99251 29.7188 9.50293C29.4089 10.0088 28.9736 10.4076 28.4131 10.6992C27.8525 10.9909 27.1712 11.1367 26.3691 11.1367C25.7539 11.1367 25.2002 11.0273 24.708 10.8086C24.2158 10.5853 23.7943 10.2708 23.4434 9.86523C23.0924 9.45508 22.8236 8.96061 22.6367 8.38184C22.4544 7.80306 22.3633 7.15592 22.3633 6.44043V5.61328C22.3633 4.89779 22.4567 4.25065 22.6436 3.67188C22.835 3.0931 23.1084 2.59863 23.4639 2.18848C23.8193 1.77376 24.2454 1.45703 24.7422 1.23828C25.2435 1.01953 25.8063 0.910156 26.4307 0.910156C27.2236 0.910156 27.8936 1.05599 28.4404 1.34766C28.9873 1.63932 29.4111 2.04264 29.7119 2.55762C30.0173 3.07259 30.2041 3.66276 30.2725 4.32812H28.5635C28.5179 3.89974 28.4176 3.53288 28.2627 3.22754C28.1123 2.9222 27.889 2.68978 27.5928 2.53027C27.2965 2.36621 26.9092 2.28418 26.4307 2.28418C26.0387 2.28418 25.6969 2.3571 25.4053 2.50293C25.1136 2.64876 24.8698 2.86296 24.6738 3.14551C24.4779 3.42806 24.3298 3.77669 24.2295 4.19141C24.1338 4.60156 24.0859 5.07096 24.0859 5.59961V6.44043C24.0859 6.94173 24.1292 7.39746 24.2158 7.80762C24.307 8.21322 24.4437 8.56185 24.626 8.85352C24.8128 9.14518 25.0498 9.37077 25.3369 9.53027C25.624 9.68978 25.9681 9.76953 26.3691 9.76953C26.8568 9.76953 27.251 9.69206 27.5518 9.53711C27.8571 9.38216 28.0872 9.15658 28.2422 8.86035C28.4017 8.55957 28.5065 8.19271 28.5566 7.75977Z" fill="white"/>
<path d="M36.9639 1.04688V11H35.2617V1.04688H36.9639ZM40.0879 1.04688V2.41406H32.165V1.04688H40.0879Z" fill="white"/>
<path d="M45.8701 2.37305L42.8965 11H41.0986L44.8447 1.04688H45.9932L45.8701 2.37305ZM48.3584 11L45.3779 2.37305L45.248 1.04688H46.4033L50.1631 11H48.3584ZM48.2148 7.30859V8.66895H42.8008V7.30859H48.2148Z" fill="white"/>
</svg>
